<?xml version="1.0" standalone="yes"?>
<!DOCTYPE svg PUBLIC "-//W3C//DTD SVG 1.1//EN" "http://www.w3.org/Graphics/SVG/1.1/DTD/svg11.dtd">
<svg xmlns="http://www.w3.org/2000/svg" xmlns:xlink="http://www.w3.org/1999/xlink" version="1.1" width="901.0" height="462.0" viewBox="-28565,-15756 66070,33878">
	<g fill-rule="evenodd" stroke="none" fill="white">
		<path id="Kansas"  d="M -27452,-15703 l 1599,55 704,23 1327,40 666,18 1149,31 353,12 600,18 2548,71 2057,50 24,1 145,3 465,10 4190,80 23,0 115,2 1561,20 3143,35 13,0 2930,22 711,4 171,2 962,5 576,3 2312,-12 249,-1 1667,-7 1956,-12 2101,-6 303,-2 546,-8 926,-15 32,0 3814,-52 21,0 297,-4 2841,-42 707,-12 953,-19 2899,-75 31,-1 1925,-39 1947,-57 87,-3 1821,-61 2056,-73 809,-19 98,-6 850,-30 271,-2 -8,68 30,63 52,50 51,40 75,30 69,31 52,34 57,44 45,68 37,43 31,43 54,42 54,26 41,14 58,5 61,-4 46,-8 57,11 32,18 24,44 20,43 10,35 8,30 -2,41 -3,35 -17,25 -16,41 -10,35 0,28 29,34 38,23 48,31 60,14 59,-2 64,-29 45,-28 42,-28 42,-14 46,-8 48,22 23,30 8,54 7,30 3,40 8,45 19,44 23,33 41,35 34,16 43,14 31,11 36,18 54,22 44,13 51,26 56,9 41,5 89,3 144,-9 95,-17 57,-25 63,-44 37,-48 8,-36 7,-51 2,-45 -1,-39 26,-39 40,-62 62,-30 61,-6 57,15 21,1 51,4 56,-6 52,-8 45,-17 57,-11 51,5 61,5 58,19 71,40 31,35 31,53 10,33 1,45 -11,30 -15,41 -24,30 -21,45 -16,36 -10,40 17,48 20,37 20,41 40,37 38,33 46,20 31,14 41,10 46,10 77,0 51,4 26,15 31,30 26,28 23,39 13,34 2,15 8,55 3,50 -12,46 -10,45 -21,46 -33,30 -19,17 -29,9 -51,21 -47,14 -49,13 -48,3 -36,0 -51,11 -26,20 -25,25 -14,30 -2,41 8,40 12,29 29,44 19,12 31,20 53,36 80,4 73,-14 50,-22 48,-40 29,-31 36,-25 41,-1 46,16 36,39 16,43 15,65 6,53 0,56 -15,55 -28,55 -47,59 -48,49 -56,29 -44,13 -79,-2 -77,-14 -94,-38 -103,-73 -80,-54 -44,-24 -36,-12 -51,18 -28,14 -30,31 -21,35 -10,60 -5,71 5,123 6,101 6,73 0,60 -15,61 -16,30 -33,37 -43,24 -42,17 -40,14 -51,3 -56,19 -77,29 -77,66 -61,76 -45,68 -45,94 -57,111 -27,87 -13,59 0,25 -1,23 27,58 15,50 21,45 12,38 13,40 -4,38 -11,34 -17,46 -28,42 -30,34 -38,27 -59,19 -47,18 -57,-6 -35,-11 -44,-19 -41,-2 -46,8 -28,9 -36,30 -30,46 -27,90 -1,65 10,60 43,113 54,99 32,33 55,58 77,63 82,60 69,41 65,46 47,39 31,46 21,50 17,59 5,65 8,40 19,64 29,58 31,40 47,36 87,34 159,59 72,25 61,20 34,26 23,24 17,39 13,34 13,50 30,53 26,40 29,22 27,23 46,15 39,15 38,15 43,40 30,40 1,44 -2,40 8,35 24,49 41,33 34,17 8,5 30,18 56,-4 52,-22 38,-19 49,-27 50,-15 31,-7 41,7 37,29 30,42 27,48 10,40 -12,52 -18,34 -31,31 -32,26 -39,35 -34,30 -12,20 -15,40 -10,41 -8,54 4,60 9,65 6,37 12,73 35,123 57,111 82,125 114,90 97,60 116,47 76,56 51,62 41,55 40,76 1,90 -15,65 -30,41 -25,76 10,45 53,46 50,39 73,29 62,11 62,-5 45,-8 52,7 34,4 20,22 27,28 20,35 32,43 24,54 37,49 41,42 47,43 46,31 57,28 69,14 62,6 74,-1 77,-10 63,-14 49,-37 29,-29 43,-37 36,-20 71,-11 37,0 29,-2 43,17 56,29 15,26 5,30 -4,35 -11,25 1,25 15,31 26,30 37,22 33,18 43,9 56,0 64,-20 34,-16 42,-9 39,-17 47,-10 51,-2 20,-1 21,2 32,18 23,34 17,39 10,25 6,40 -8,46 -2,25 -25,60 -31,46 -13,25 -18,30 -25,51 3,63 43,787 2,43 94,2148 4,135 34,1072 115,2905 3,95 31,866 128,3054 29,603 11,258 170,4026 9,219 8,193 120,2819 8,202 12,286 129,3105 27,650 -2139,97 -1544,70 -5,7 -343,13 -2919,93 -57,2 -1041,33 1,7 -2210,75 -146,5 -106,3 -1134,36 -325,11 -8,0 -82,3 -231,9 -841,24 -195,1 -1067,30 -82,5 -313,8 -205,5 -1996,50 -116,3 -20,1 -1864,55 -1563,35 -892,19 -1049,21 0,-8 -454,15 -652,9 -1246,16 -433,5 -24,0 -650,9 -1843,23 -530,6 -860,9 -1382,13 -557,5 -1893,12 -171,1 -1354,7 -404,1 -4049,-3 -3560,-7 -455,-1 -786,-4 -4104,-27 -14,0 -781,-9 -158,-2 -4680,-81 -2763,-60 -84,-1 -1011,-14 -1788,-32 -2456,-51 -101,-3 -3229,-75 -624,-18 -355,-11 -122,-2 -5,0 47,-1308 17,-509 5,-161 11,-327 5,-141 11,-347 4,-136 48,-1465 93,-2825 35,-1060 192,-5818 2,-55 125,-3842 31,-905 131,-3888 32,-979 161,-4828 2,-55 z M 66070 33878  H -28565 V -15756 H 66070 L 66070 33878"/>
	</g>
</svg>
